<svg xmlns="http://www.w3.org/2000/svg" viewBox="0 0 200 200" width="16" height="16">
  <title>"C" logo of Chris Nager</title>
  <style>
    path {
      fill: none;
      stroke: #000;
      stroke-linejoin: round;
      stroke-width: 10px;
    }

    @media (prefers-color-scheme: dark) {
      path {
        stroke: #fff;
      }
    }
  </style>
  <path d="M21,100A78.06,78.06,0,0,1,52.25,37.48h0v125h0a78.17,78.17,0,0,0,118.52-31.26l-43-18.76.15-.33a31.26,31.26,0,0,1-44.43,14.9" />
  <path d="M82,176.18,82,23.42a95.41,95.41,0,0,1,17.19-1.56,78.16,78.16,0,0,1,72,47.72l-43.2,18.25h0A31.26,31.26,0,0,0,81.67,74.08" />
</svg>



  